<svg class="logo" xmlns="http://www.w3.org/2000/svg" xmlns:xlink="http://www.w3.org/1999/xlink" viewBox="0 0 820 419.1312">
  <defs>
    <style>
      .cls-1 {
        fill: #35141b;
      }

      .cls-2 {
        fill: #f2eb3a;
      }

      .cls-3 {
        fill: #f48120;
      }

      .cls-4 {
        fill: #f05725;
      }

      .cls-5 {
        fill: #cc2128;
      }

      .cls-6 {
        fill: #6b1018;
      }

      .cls-7 {
        fill: url(#linear-gradient);
      }

      .cls-8 {
        fill: #fff;
      }
    </style>
    <linearGradient id="linear-gradient" x1="419.34911" y1="397.94577" x2="796.96887" y2="397.94577" gradientUnits="userSpaceOnUse">
      <stop offset="0" stop-color="#35141b"/>
      <stop offset="0.5324" stop-color="#6b1018"/>
      <stop offset="1" stop-color="#cc2128"/>
    </linearGradient>
  </defs>
  <title>Asset 2</title>
  <g id="Layer_2" data-name="Layer 2">
    <g id="Layer_1-2" data-name="Layer 1">
      <rect class="cls-1" x="167.73964" y="83.65188" width="41.93491" height="41.93491"/>
      <rect id="rect6" class="cls-2" x="754.82839" y="83.65188" width="41.93491" height="41.93491"/>
      <rect id="rect1" class="cls-1" x="754.82839" y="293.32643" width="41.93491" height="41.93491"/>
      <rect id="rect3" class="cls-3" x="754.82839" y="125.58679" width="41.93491" height="41.93491"/>
      <rect id="rect4" class="cls-4" x="754.82839" y="167.5217" width="41.93491" height="41.93491"/>
      <rect id="rect5" class="cls-5" x="754.82839" y="209.45661" width="41.93491" height="41.93491"/>
      <rect id="rect2" class="cls-6" x="754.82839" y="251.39152" width="41.93491" height="41.93491"/>
      <polygon class="cls-1" points="545.154 125.587 545.154 83.652 503.219 83.652 503.219 125.587 461.284 125.587 461.284 167.522 503.219 167.522 503.219 209.457 503.219 251.391 503.219 293.326 503.219 335.261 545.154 335.261 545.154 293.326 545.154 251.391 545.154 209.457 545.154 167.522 587.089 167.522 587.089 125.587 545.154 125.587"/>
      <polygon class="cls-1" points="167.739 167.522 167.739 209.457 167.739 251.391 167.739 293.326 167.739 335.261 209.675 335.261 209.675 293.326 209.675 251.391 209.675 209.457 209.675 167.522 167.739 167.522"/>
      <rect class="cls-7" x="419.34911" y="376.97831" width="377.61976" height="41.93491"/>
      <g>
        <rect class="cls-1" x="419.34919" y="83.65202" width="41.93486" height="41.93486"/>
        <polygon class="cls-1" points="419.349 209.457 419.349 251.391 419.349 293.326 419.349 335.261 461.284 335.261 461.284 293.326 461.284 251.391 461.284 209.457 461.284 167.522 419.349 167.522 419.349 209.457"/>
      </g>
      <path class="cls-1" d="M83.86987,83.652v83.86972H.10892V209.4566H0v83.86973H.218v41.82594H41.93486v.10892h83.86973V83.652Zm0,167.73945v41.93486h-41.717v-.10892h-.218V209.4566h41.935Z"/>
      <rect class="cls-6" x="670.95857" y="293.32643" width="41.93491" height="41.93491"/>
      <rect class="cls-4" x="670.95857" y="167.5217" width="41.93491" height="41.93491"/>
      <rect class="cls-5" x="670.95857" y="209.45661" width="41.93491" height="41.93491"/>
      <rect class="cls-6" x="587.08875" y="209.45661" width="41.93491" height="41.93491"/>
      <rect class="cls-5" x="629.02366" y="167.5217" width="41.93491" height="41.93491"/>
      <rect class="cls-6" x="670.95857" y="251.39152" width="41.93491" height="41.93491"/>
      <rect class="cls-1" x="629.02366" y="293.32643" width="41.93491" height="41.93491"/>
      <rect class="cls-1" x="587.08875" y="251.39152" width="41.93491" height="41.93491"/>
      <path class="cls-1" d="M335.47946,167.52174H251.71838V209.4566h-.10893v83.86973h.10893v41.93486h83.76108v41.93486h-83.87V419.1312h125.696V377.19605h.10892V167.52174Zm0,83.86973v41.93486H293.54432V209.4566h41.93514Z"/>
      <g class="rocket">
        <rect class="cls-1" x="754.82839" y="41.82594" width="41.93491" height="41.93491"/>
        <path class="cls-1" d="M796.7633,41.93491H754.82839V20.96743A20.96743,20.96743,0,0,1,775.79583,0h0A20.96743,20.96743,0,0,1,796.7633,20.96743Z"/>
        <path class="cls-1" d="M731.9063,62.53352V83.76094h20.70746V41.82608h0A20.70744,20.70744,0,0,0,731.9063,62.53352Z"/>
        <path class="cls-1" d="M799.29253,41.82608V83.76094H820V62.53352a20.70744,20.70744,0,0,0-20.70744-20.70744Z"/>
      </g>
      <g>
        <path class="cls-8" d="M541.21276,388.28564h-9.4955v-4.98876H556.223v4.98876h-9.4955V414.279h-5.51471Z"/>
        <path class="cls-8" d="M574.7379,383.29688H579.507l13.3469,30.98209h-6.30066l-2.88854-7.089H570.23l-2.80069,7.089h-6.17006ZM581.739,402.4636l-4.76913-12.60368-4.85816,12.60368Z"/>
        <path class="cls-8" d="M605.06819,383.29688h5.51352v13.12726h.26238l12.82214-13.12726h7.43921l-14.48426,14.30975L632.06829,414.279h-7.74552L610.888,399.0503h-.30631V414.279h-5.51352Z"/>
        <path class="cls-8" d="M643.80173,383.29688h20.52373v4.98876H649.31525v7.61374h14.22189v4.98876H649.31525v8.40206H665.1126V414.279H643.80173Z"/>
        <path class="cls-8" d="M693.99921,382.50856c9.67122-.17453,16.49782,6.30184,16.49782,16.23544,0,9.67121-6.8266,16.14758-16.49782,16.3221-9.54062,0-16.36722-6.47636-16.36722-16.14758C677.632,388.98493,684.45859,382.50856,693.99921,382.50856Zm.04393,27.56878c6.43244,0,10.67681-4.9009,10.67681-11.50905,0-6.17006-4.24437-11.071-10.67681-11.071-6.3897,0-10.63406,4.90091-10.63406,11.071C683.40908,405.17644,687.65344,410.07734,694.04314,410.07734Z"/>
        <path class="cls-8" d="M724.50522,383.29688h19.999v4.98876H730.01874v8.1385h13.6532v4.98876h-13.6532V414.279h-5.51352Z"/>
        <path class="cls-8" d="M758.38059,383.29688h19.999v4.98876H763.89411v8.1385h13.6532v4.98876h-13.6532V414.279h-5.51352Z"/>
      </g>
    </g>
  </g>
</svg>
