<svg xmlns="http://www.w3.org/2000/svg" viewBox="0 0 393.43848 99.43457">
  <defs>
    <style>
      .cls1 {
        fill: black;
      }
    </style>
  </defs>
  <title>Asset 2</title>
  <g id="Layer_2" data-name="Layer 2">
    <g id="Layer_1-2" data-name="Layer 1">
      <g>
        <path class="cls1" d="M0,.27051H4.37305C7.3418.27051,8.7998,1.917,8.7998,4.93945V6.80273c0,3.02247-1.458,4.66895-4.42675,4.66895H2.96875V19.165H0Zm4.37305,8.502c.94531,0,1.457-.43164,1.457-1.78125V4.751c0-1.34961-.51172-1.78125-1.457-1.78125H2.96875V8.77246Z"/>
        <path class="cls1" d="M15.82227.27051H18.791V19.165H15.82227Z"/>
        <path class="cls1" d="M29.02344,9.502,25.75781.27051h3.13086l1.998,6.09961h.05371L32.99219.27051h2.80664L32.5332,9.502,35.96094,19.165H32.83008L30.66992,12.5791h-.05371L28.40234,19.165H25.5957Z"/>
        <path class="cls1" d="M42.76758.27051h8.09765V2.96973h-5.1289V7.96289H49.8125v2.69922H45.73633v5.80371h5.1289V19.165H42.76758Z"/>
        <path class="cls1" d="M57.96875.27051H60.9375V16.46582h4.88574V19.165H57.96875Z"/>
        <path class="cls1" d="M72.14355,14.68457V13.60449h2.80762v1.2959c0,1.34961.59375,1.835,1.53809,1.835s1.53906-.48535,1.53906-1.88867c0-1.56641-.59473-2.56445-2.53809-4.26563-2.48242-2.18652-3.293-3.7246-3.293-5.88378C72.19727,1.72754,73.73633,0,76.625,0c2.8877,0,4.31836,1.72754,4.31836,4.751V5.5332H78.13672V4.56152c0-1.34961-.541-1.8623-1.48535-1.8623S75.167,3.21191,75.167,4.50781c0,1.377.62012,2.376,2.56348,4.07617,2.48437,2.18653,3.2666,3.69825,3.2666,6.0459,0,3.07715-1.56543,4.80469-4.48047,4.80469S72.14355,17.707,72.14355,14.68457Z"/>
        <path class="cls1" d="M109.834.27051h4.02247L116.93359,19.165h-2.96875l-.54-3.752v.05371h-3.374l-.54,3.69824h-2.75293Zm3.24024,12.63183L111.751,3.56348h-.05371l-1.2959,9.33886Z"/>
        <path class="cls1" d="M123.76758.27051H128.166c3.07812,0,4.40039,1.43066,4.40039,4.3457V5.77637c0,1.94336-.6211,3.18554-1.94336,3.72558v.05371c1.48437.459,1.9707,1.86231,1.9707,3.99512v3.32031a5.56567,5.56567,0,0,0,.32422,2.294h-3.02344a5.814,5.814,0,0,1-.26953-2.32129V13.38867c0-1.75488-.51367-2.32129-1.86328-2.32129h-1.02539V19.165h-2.96875Zm4.04883,8.09765c1.10547,0,1.78125-.48632,1.78125-1.998v-1.457c0-1.34961-.459-1.94336-1.51172-1.94336h-1.34961V8.36816Z"/>
        <path class="cls1" d="M140.04785.27051h8.09766V2.96973H143.0166V7.96289h4.07617v2.69922H143.0166v5.80371h5.12891V19.165h-8.09766Z"/>
        <path class="cls1" d="M174.68848.27051h2.96875V16.46582H182.543V19.165h-7.85449Z"/>
        <path class="cls1" d="M191.77734.27051h4.02246L198.877,19.165H195.9082l-.54-3.752v.05371h-3.374l-.54,3.69824h-2.75293Zm3.24024,12.63183-1.32324-9.33886h-.05371l-1.2959,9.33886Z"/>
        <path class="cls1" d="M206.79,2.96973h-3.10352V.27051h9.17676V2.96973h-3.10351V19.165H206.79Z"/>
        <path class="cls1" d="M219.69629.27051H227.794V2.96973H222.666V7.96289h4.07519v2.69922H222.666v5.80371H227.794V19.165h-8.09766Z"/>
        <path class="cls1" d="M254.33691.27051h7.85547V2.96973h-4.88574V8.2334h3.833v2.69922h-3.833V19.165h-2.96973Z"/>
        <path class="cls1" d="M268.80859,14.68457V4.751c0-3.02344,1.59278-4.751,4.50782-4.751s4.50781,1.72754,4.50781,4.751v9.93359c0,3.02246-1.59277,4.75-4.50781,4.75S268.80859,17.707,268.80859,14.68457Zm6.04688.18848V4.56152c0-1.34961-.59375-1.8623-1.53906-1.8623-.94434,0-1.53809.51269-1.53809,1.8623V14.87305c0,1.34961.59375,1.8623,1.53809,1.8623C274.26172,16.73535,274.85547,16.22266,274.85547,14.87305Z"/>
        <path class="cls1" d="M285.22461.27051H289.625c3.07715,0,4.39941,1.43066,4.39941,4.3457V5.77637c0,1.94336-.62109,3.18554-1.94336,3.72558v.05371c1.48438.459,1.97071,1.86231,1.97071,3.99512v3.32031a5.56636,5.56636,0,0,0,.32324,2.294h-3.02246a5.80619,5.80619,0,0,1-.27051-2.32129V13.38867c0-1.75488-.51269-2.32129-1.8623-2.32129h-1.02539V19.165h-2.96973Zm4.04883,8.09765c1.10742,0,1.78222-.48632,1.78222-1.998v-1.457c0-1.34961-.459-1.94336-1.51171-1.94336h-1.34961V8.36816Z"/>
        <path class="cls1" d="M320.24316.27051h2.86133L324.42676,14.792h.05371L325.88477.27051h3.23828L330.52734,14.792h.05371L331.90332.27051h2.56445l-1.916,18.89453h-3.69824L327.50391,6.4248h-.05371L326.10059,19.165h-3.94141Z"/>
        <path class="cls1" d="M341.168,14.68457V4.751c0-3.02344,1.59277-4.751,4.50781-4.751s4.50781,1.72754,4.50781,4.751v9.93359c0,3.02246-1.59277,4.75-4.50781,4.75S341.168,17.707,341.168,14.68457Zm6.04687.18848V4.56152c0-1.34961-.59375-1.8623-1.53906-1.8623-.94433,0-1.53808.51269-1.53808,1.8623V14.87305c0,1.34961.59375,1.8623,1.53808,1.8623C346.62109,16.73535,347.21484,16.22266,347.21484,14.87305Z"/>
        <path class="cls1" d="M357.584.27051h4.4004c3.07714,0,4.39941,1.43066,4.39941,4.3457V5.77637c0,1.94336-.62109,3.18554-1.94336,3.72558v.05371c1.48437.459,1.9707,1.86231,1.9707,3.99512v3.32031a5.56619,5.56619,0,0,0,.32325,2.294h-3.02247a5.80626,5.80626,0,0,1-.2705-2.32129V13.38867c0-1.75488-.5127-2.32129-1.86231-2.32129h-1.02539V19.165H357.584Zm4.04883,8.09765c1.10742,0,1.78223-.48632,1.78223-1.998v-1.457c0-1.34961-.459-1.94336-1.51172-1.94336h-1.34961V8.36816Z"/>
        <path class="cls1" d="M373.86426.27051H376.834V8.2334L380.6123.27051H383.582L380.0459,7.207l3.58984,11.958h-3.10449l-2.50977-8.42188-1.1875,2.40235V19.165h-2.96972Z"/>
        <path class="cls1" d="M391.54883,19.165h-.97168V16.30371h2.86133v2.56445L391.9541,22.4043h-1.37695Z"/>
        <path class="cls1" d="M31.42773,42.96973H28.32227V40.27051H37.5v2.69922H34.39648V59.165H31.42773Z"/>
        <path class="cls1" d="M44.334,40.27051h2.96875v7.69238h3.18555V40.27051H53.457V59.165H50.48828V50.66211H47.30273V59.165H44.334Z"/>
        <path class="cls1" d="M61.07422,40.27051h8.09766v2.69922H64.043v4.99316h4.07617v2.69922H64.043v5.80371h5.12891V59.165H61.07422Z"/>
        <path class="cls1" d="M79.001,51.12109,75.41113,40.27051h3.15723L80.59375,47.207h.05371l2.02442-6.93652h2.88867L81.9707,51.12109V59.165H79.001Z"/>
        <path class="cls1" d="M114.0459,40.27051h4.02246L121.14453,59.165h-2.96875l-.53906-3.752v.05371h-3.375l-.53906,3.69824h-2.75391Zm3.23926,12.63183-1.32227-9.33886h-.05469l-1.29492,9.33886Z"/>
        <path class="cls1" d="M127.97852,40.27051h4.39941c3.07715,0,4.39941,1.43066,4.39941,4.3457v1.16016c0,1.94336-.62011,3.18554-1.94336,3.72558v.05371c1.48438.459,1.97071,1.86231,1.97071,3.99512v3.32031a5.56567,5.56567,0,0,0,.32422,2.29395h-3.02344a5.814,5.814,0,0,1-.26953-2.32129V53.38867c0-1.75488-.51367-2.32129-1.86328-2.32129h-1.02539V59.165h-2.96875Zm4.04882,8.09765c1.10645,0,1.78125-.48632,1.78125-1.998v-1.457c0-1.34961-.459-1.94336-1.51171-1.94336h-1.34961v5.39843Z"/>
        <path class="cls1" d="M144.25977,40.27051h8.09765v2.69922h-5.1289v4.99316h4.07617v2.69922h-4.07617v5.80371h5.1289V59.165h-8.09765Z"/>
        <path class="cls1" d="M178.38672,54.68457V53.60449h2.80664v1.2959c0,1.34961.59473,1.835,1.53906,1.835.94531,0,1.53906-.48535,1.53906-1.88867,0-1.56641-.59375-2.56445-2.5371-4.26563-2.48438-2.18652-3.293-3.7246-3.293-5.88378,0-2.96973,1.53808-4.69727,4.42578-4.69727,2.88867,0,4.31933,1.72754,4.31933,4.751v.78222h-2.80761v-.97168c0-1.34961-.53907-1.8623-1.48438-1.8623s-1.48437.51269-1.48437,1.80859c0,1.377.62109,2.376,2.56445,4.07617,2.48242,2.18653,3.26562,3.69825,3.26562,6.0459,0,3.07715-1.56543,4.80469-4.48046,4.80469C179.84375,59.43457,178.38672,57.707,178.38672,54.68457Z"/>
        <path class="cls1" d="M196.665,42.96973h-3.10449V40.27051h9.17773v2.69922h-3.10351V59.165H196.665Z"/>
        <path class="cls1" d="M209.57129,40.27051H212.541V59.165h-2.96973Z"/>
        <path class="cls1" d="M220.15527,40.27051H223.125V56.46582h4.88574V59.165h-7.85547Z"/>
        <path class="cls1" d="M254.28223,40.27051h4.48144c3.07715,0,4.39942,1.43066,4.39942,4.3457v.75586c0,1.94336-.59375,3.1582-1.916,3.69727V49.124c1.5918.53907,2.21289,1.94336,2.21289,3.94043v1.62012c0,2.915-1.53808,4.48047-4.50781,4.48047h-4.66992Zm4.12988,7.69238c1.10742,0,1.78223-.48535,1.78223-1.99707V44.91309c0-1.34961-.459-1.94336-1.51172-1.94336H257.252v4.99316Zm.54,8.50293c.999,0,1.53906-.459,1.53906-1.8623V52.957c0-1.75488-.56738-2.29492-1.917-2.29492H257.252v5.80371Z"/>
        <path class="cls1" d="M270.48242,54.68457V40.27051h2.96875V54.90039c0,1.34961.56738,1.835,1.51172,1.835s1.51172-.48535,1.51172-1.835V40.27051h2.86133V54.68457c0,3.02246-1.51172,4.75-4.42676,4.75S270.48242,57.707,270.48242,54.68457Z"/>
        <path class="cls1" d="M286.84375,40.27051h2.96973V59.165h-2.96973Z"/>
        <path class="cls1" d="M297.42773,40.27051h2.96973V56.46582h4.88574V59.165h-7.85547Z"/>
        <path class="cls1" d="M312.11621,40.27051h4.53516c2.96875,0,4.42676,1.64648,4.42676,4.66894v9.55567c0,3.02343-1.458,4.66992-4.42676,4.66992h-4.53516Zm4.48145,16.19531c.94433,0,1.51074-.48633,1.51074-1.83594V44.80469c0-1.34961-.56641-1.835-1.51074-1.835h-1.51172V56.46582Z"/>
        <path class="cls1" d="M328.47754,40.27051h2.96973V59.165h-2.96973Z"/>
        <path class="cls1" d="M339.06152,40.27051h3.72559l2.88769,11.30957h.05372V40.27051h2.6455V59.165h-3.0498l-3.56348-13.793H341.707V59.165h-2.64551Z"/>
        <path class="cls1" d="M355.77344,54.68457V44.751c0-3.02344,1.51172-4.751,4.42676-4.751s4.42675,1.72754,4.42675,4.751v1.61914h-2.80664v-1.8086c0-1.34961-.59375-1.8623-1.53906-1.8623-.94434,0-1.53809.51269-1.53809,1.8623V54.90039c0,1.34961.59375,1.835,1.53809,1.835.94531,0,1.53906-.48535,1.53906-1.835V51.20215H360.335V48.50293h4.292v6.18164c0,3.02246-1.51172,4.75-4.42675,4.75S355.77344,57.707,355.77344,54.68457Z"/>
        <path class="cls1" d="M100.08691,82.96973H96.98242V80.27051h9.17774v2.69922h-3.10352V99.165h-2.96973Z"/>
        <path class="cls1" d="M112.99414,80.27051h2.96875v7.69238h3.18555V80.27051h2.96875V99.165h-2.96875V90.66211h-3.18555V99.165h-2.96875Z"/>
        <path class="cls1" d="M129.7334,80.27051h8.09765v2.69922h-5.1289v4.99316h4.07617v2.69922h-4.07617v5.80371h5.1289V99.165H129.7334Z"/>
        <path class="cls1" d="M163.67188,80.27051h2.86132L167.85547,94.792h.05469l1.40332-14.52148h3.23925L173.95605,94.792h.05372L175.333,80.27051h2.56347l-1.916,18.89453H172.2832L170.93359,86.4248h-.05468L169.5293,99.165h-3.94141Z"/>
        <path class="cls1" d="M184.8125,80.27051h8.09766v2.69922h-5.12891v4.99316h4.07617v2.69922h-4.07617v5.80371h5.12891V99.165H184.8125Z"/>
        <path class="cls1" d="M200.01367,80.27051h4.48047c3.07715,0,4.39941,1.43066,4.39941,4.3457v.75586c0,1.94336-.59375,3.1582-1.916,3.69727V89.124c1.5918.53907,2.21289,1.94336,2.21289,3.94043v1.62012c0,2.915-1.53809,4.48047-4.50781,4.48047h-4.66895Zm4.12891,7.69238c1.10742,0,1.78222-.48535,1.78222-1.99707V84.91309c0-1.34961-.459-1.94336-1.51171-1.94336h-1.43067v4.99316Zm.54,8.50293c.999,0,1.53906-.459,1.53906-1.8623V92.957c0-1.75488-.56738-2.29492-1.917-2.29492h-1.32227v5.80371Z"/>
        <path class="cls1" d="M215.80762,94.68457V93.60449h2.80761v1.2959c0,1.34961.59375,1.835,1.53809,1.835.94531,0,1.53906-.48535,1.53906-1.88867,0-1.56641-.59375-2.56445-2.53711-4.26563-2.48339-2.18652-3.29394-3.7246-3.29394-5.88378,0-2.96973,1.53906-4.69727,4.42676-4.69727,2.88867,0,4.31933,1.72754,4.31933,4.751v.78222H221.7998v-.97168c0-1.34961-.54-1.8623-1.48437-1.8623s-1.48438.51269-1.48438,1.80859c0,1.377.6211,2.376,2.56446,4.07617,2.4834,2.18653,3.26562,3.69825,3.26562,6.0459,0,3.07715-1.56543,4.80469-4.48047,4.80469S215.80762,97.707,215.80762,94.68457Z"/>
        <path class="cls1" d="M231.76465,80.27051h2.96973V99.165h-2.96973Z"/>
        <path class="cls1" d="M244.66992,82.96973h-3.10351V80.27051h9.17773v2.69922h-3.10449V99.165h-2.96973Z"/>
        <path class="cls1" d="M257.57617,80.27051h8.09766v2.69922H260.5459v4.99316h4.07519v2.69922H260.5459v5.80371h5.12793V99.165h-8.09766Z"/>
        <path class="cls1" d="M292.458,88.15234V80.27051h2.96972v7.88183l-.37793,6.01856h-2.21386Zm.05371,8.15137h2.86133V99.165h-2.86133Z"/>
      </g>
    </g>
  </g>
</svg>
